<mxfile host="app.diagrams.net" agent="Mozilla/5.0 (Windows NT 10.0; Win64; x64) AppleWebKit/537.36 (KHTML, like Gecko) Chrome/135.0.0.0 Safari/537.36 Edg/135.0.0.0" version="27.0.6">
  <diagram name="Page-1" id="2YBvvXClWsGukQMizWep">
    <mxGraphModel dx="2010" dy="1071" grid="1" gridSize="10" guides="1" tooltips="1" connect="1" arrows="1" fold="1" page="1" pageScale="1" pageWidth="850" pageHeight="1100" background="#FFFFFF" math="0" shadow="1" adaptiveColors="none">
      <root>
        <mxCell id="0" />
        <mxCell id="1" parent="0" />
        <mxCell id="TKYAPVWksG-G4QSh5mju-10" style="rounded=0;orthogonalLoop=1;jettySize=auto;html=1;dashed=1;endArrow=none;startFill=0;labelBackgroundColor=none;fontColor=default;" edge="1" parent="1" source="TKYAPVWksG-G4QSh5mju-1" target="TKYAPVWksG-G4QSh5mju-5">
          <mxGeometry relative="1" as="geometry" />
        </mxCell>
        <mxCell id="TKYAPVWksG-G4QSh5mju-12" value="Confirmar senha" style="edgeLabel;html=1;align=center;verticalAlign=middle;resizable=0;points=[];labelBackgroundColor=none;" vertex="1" connectable="0" parent="TKYAPVWksG-G4QSh5mju-10">
          <mxGeometry x="0.1556" y="1" relative="1" as="geometry">
            <mxPoint as="offset" />
          </mxGeometry>
        </mxCell>
        <mxCell id="TKYAPVWksG-G4QSh5mju-1" value="Cliente" style="shape=umlActor;verticalLabelPosition=bottom;verticalAlign=top;html=1;outlineConnect=0;labelBackgroundColor=none;" vertex="1" parent="1">
          <mxGeometry x="-150" y="260" width="30" height="60" as="geometry" />
        </mxCell>
        <mxCell id="TKYAPVWksG-G4QSh5mju-2" value=":Banco" style="ellipse;shape=umlEntity;whiteSpace=wrap;html=1;labelBackgroundColor=none;" vertex="1" parent="1">
          <mxGeometry x="310" y="42" width="80" height="80" as="geometry" />
        </mxCell>
        <mxCell id="TKYAPVWksG-G4QSh5mju-3" value="Controle Transação" style="ellipse;shape=umlControl;whiteSpace=wrap;html=1;labelBackgroundColor=none;" vertex="1" parent="1">
          <mxGeometry x="150" y="42" width="70" height="80" as="geometry" />
        </mxCell>
        <mxCell id="TKYAPVWksG-G4QSh5mju-4" value=":VisaoBanco" style="shape=umlBoundary;whiteSpace=wrap;html=1;labelBackgroundColor=none;" vertex="1" parent="1">
          <mxGeometry x="-30" y="40" width="100" height="80" as="geometry" />
        </mxCell>
        <mxCell id="TKYAPVWksG-G4QSh5mju-13" style="rounded=0;orthogonalLoop=1;jettySize=auto;html=1;labelBackgroundColor=none;fontColor=default;" edge="1" parent="1" source="TKYAPVWksG-G4QSh5mju-5" target="TKYAPVWksG-G4QSh5mju-6">
          <mxGeometry relative="1" as="geometry" />
        </mxCell>
        <mxCell id="TKYAPVWksG-G4QSh5mju-14" value="Confirmar transação" style="edgeLabel;html=1;align=center;verticalAlign=middle;resizable=0;points=[];labelBackgroundColor=none;" vertex="1" connectable="0" parent="TKYAPVWksG-G4QSh5mju-13">
          <mxGeometry x="0.0303" y="-1" relative="1" as="geometry">
            <mxPoint as="offset" />
          </mxGeometry>
        </mxCell>
        <mxCell id="TKYAPVWksG-G4QSh5mju-5" value="" style="html=1;points=[[0,0,0,0,5],[0,1,0,0,-5],[1,0,0,0,5],[1,1,0,0,-5]];perimeter=orthogonalPerimeter;outlineConnect=0;targetShapes=umlLifeline;portConstraint=eastwest;newEdgeStyle={&quot;curved&quot;:0,&quot;rounded&quot;:0};labelBackgroundColor=none;" vertex="1" parent="1">
          <mxGeometry x="15" y="240" width="10" height="100" as="geometry" />
        </mxCell>
        <mxCell id="TKYAPVWksG-G4QSh5mju-15" style="rounded=0;orthogonalLoop=1;jettySize=auto;html=1;exitX=1;exitY=0.179;exitDx=0;exitDy=0;exitPerimeter=0;labelBackgroundColor=none;fontColor=default;" edge="1" parent="1" source="TKYAPVWksG-G4QSh5mju-6" target="TKYAPVWksG-G4QSh5mju-7">
          <mxGeometry relative="1" as="geometry">
            <mxPoint x="200" y="296" as="sourcePoint" />
            <mxPoint x="345" y="296" as="targetPoint" />
          </mxGeometry>
        </mxCell>
        <mxCell id="TKYAPVWksG-G4QSh5mju-16" value="autorizarDeposito()" style="edgeLabel;html=1;align=center;verticalAlign=middle;resizable=0;points=[];labelBackgroundColor=none;" vertex="1" connectable="0" parent="TKYAPVWksG-G4QSh5mju-15">
          <mxGeometry x="0.0069" y="-1" relative="1" as="geometry">
            <mxPoint as="offset" />
          </mxGeometry>
        </mxCell>
        <mxCell id="TKYAPVWksG-G4QSh5mju-21" style="rounded=0;orthogonalLoop=1;jettySize=auto;html=1;entryX=0;entryY=0.2;entryDx=0;entryDy=0;entryPerimeter=0;endArrow=open;endFill=0;labelBackgroundColor=none;fontColor=default;exitX=1;exitY=0.75;exitDx=0;exitDy=0;exitPerimeter=0;" edge="1" parent="1" source="TKYAPVWksG-G4QSh5mju-31" target="TKYAPVWksG-G4QSh5mju-19">
          <mxGeometry relative="1" as="geometry">
            <mxPoint x="525" y="390" as="targetPoint" />
          </mxGeometry>
        </mxCell>
        <mxCell id="TKYAPVWksG-G4QSh5mju-22" value="cancelarTransacao():&lt;div&gt;(Mais de 60 segundos de espera)&lt;/div&gt;" style="edgeLabel;html=1;align=center;verticalAlign=middle;resizable=0;points=[];labelBackgroundColor=none;" vertex="1" connectable="0" parent="TKYAPVWksG-G4QSh5mju-21">
          <mxGeometry x="-0.0687" y="1" relative="1" as="geometry">
            <mxPoint as="offset" />
          </mxGeometry>
        </mxCell>
        <mxCell id="TKYAPVWksG-G4QSh5mju-27" style="rounded=0;orthogonalLoop=1;jettySize=auto;html=1;entryX=0;entryY=0.5;entryDx=0;entryDy=0;dashed=1;endArrow=none;startFill=0;labelBackgroundColor=none;fontColor=default;strokeColor=default;" edge="1" parent="1" source="TKYAPVWksG-G4QSh5mju-31" target="TKYAPVWksG-G4QSh5mju-17">
          <mxGeometry relative="1" as="geometry" />
        </mxCell>
        <mxCell id="TKYAPVWksG-G4QSh5mju-28" value="RealizarDeposito()" style="edgeLabel;html=1;align=center;verticalAlign=middle;resizable=0;points=[];labelBackgroundColor=none;" vertex="1" connectable="0" parent="TKYAPVWksG-G4QSh5mju-27">
          <mxGeometry x="0.2667" y="6" relative="1" as="geometry">
            <mxPoint x="-25" y="6" as="offset" />
          </mxGeometry>
        </mxCell>
        <mxCell id="TKYAPVWksG-G4QSh5mju-32" style="rounded=0;orthogonalLoop=1;jettySize=auto;html=1;dashed=1;endArrow=none;startFill=0;" edge="1" parent="1" source="TKYAPVWksG-G4QSh5mju-6" target="TKYAPVWksG-G4QSh5mju-31">
          <mxGeometry relative="1" as="geometry" />
        </mxCell>
        <mxCell id="TKYAPVWksG-G4QSh5mju-6" value="" style="html=1;points=[[0,0,0,0,5],[0,1,0,0,-5],[1,0,0,0,5],[1,1,0,0,-5]];perimeter=orthogonalPerimeter;outlineConnect=0;targetShapes=umlLifeline;portConstraint=eastwest;newEdgeStyle={&quot;curved&quot;:0,&quot;rounded&quot;:0};labelBackgroundColor=none;" vertex="1" parent="1">
          <mxGeometry x="180" y="240" width="10" height="100" as="geometry" />
        </mxCell>
        <mxCell id="TKYAPVWksG-G4QSh5mju-25" style="rounded=0;orthogonalLoop=1;jettySize=auto;html=1;dashed=1;endArrow=open;endFill=0;labelBackgroundColor=none;fontColor=default;" edge="1" parent="1" source="TKYAPVWksG-G4QSh5mju-7" target="TKYAPVWksG-G4QSh5mju-6">
          <mxGeometry relative="1" as="geometry" />
        </mxCell>
        <mxCell id="TKYAPVWksG-G4QSh5mju-26" value="Deposito autorizado" style="edgeLabel;html=1;align=center;verticalAlign=middle;resizable=0;points=[];labelBackgroundColor=none;" vertex="1" connectable="0" parent="TKYAPVWksG-G4QSh5mju-25">
          <mxGeometry x="0.0231" y="1" relative="1" as="geometry">
            <mxPoint as="offset" />
          </mxGeometry>
        </mxCell>
        <mxCell id="TKYAPVWksG-G4QSh5mju-7" value="" style="html=1;points=[[0,0,0,0,5],[0,1,0,0,-5],[1,0,0,0,5],[1,1,0,0,-5]];perimeter=orthogonalPerimeter;outlineConnect=0;targetShapes=umlLifeline;portConstraint=eastwest;newEdgeStyle={&quot;curved&quot;:0,&quot;rounded&quot;:0};labelBackgroundColor=none;" vertex="1" parent="1">
          <mxGeometry x="345" y="240" width="10" height="100" as="geometry" />
        </mxCell>
        <mxCell id="TKYAPVWksG-G4QSh5mju-8" style="rounded=0;orthogonalLoop=1;jettySize=auto;html=1;dashed=1;endArrow=none;startFill=0;labelBackgroundColor=none;fontColor=default;" edge="1" parent="1" source="TKYAPVWksG-G4QSh5mju-4" target="TKYAPVWksG-G4QSh5mju-5">
          <mxGeometry relative="1" as="geometry" />
        </mxCell>
        <mxCell id="TKYAPVWksG-G4QSh5mju-9" style="rounded=0;orthogonalLoop=1;jettySize=auto;html=1;dashed=1;endArrow=none;startFill=0;labelBackgroundColor=none;fontColor=default;" edge="1" parent="1" source="TKYAPVWksG-G4QSh5mju-3" target="TKYAPVWksG-G4QSh5mju-6">
          <mxGeometry relative="1" as="geometry" />
        </mxCell>
        <mxCell id="TKYAPVWksG-G4QSh5mju-11" style="rounded=0;orthogonalLoop=1;jettySize=auto;html=1;labelBackgroundColor=none;fontColor=default;dashed=1;endArrow=none;startFill=0;" edge="1" parent="1" source="TKYAPVWksG-G4QSh5mju-2" target="TKYAPVWksG-G4QSh5mju-7">
          <mxGeometry relative="1" as="geometry" />
        </mxCell>
        <mxCell id="TKYAPVWksG-G4QSh5mju-17" value=":Conta" style="ellipse;shape=umlEntity;whiteSpace=wrap;html=1;labelBackgroundColor=none;" vertex="1" parent="1">
          <mxGeometry x="490" y="360" width="80" height="80" as="geometry" />
        </mxCell>
        <mxCell id="TKYAPVWksG-G4QSh5mju-19" value="" style="html=1;points=[[0,0,0,0,5],[0,1,0,0,-5],[1,0,0,0,5],[1,1,0,0,-5]];perimeter=orthogonalPerimeter;outlineConnect=0;targetShapes=umlLifeline;portConstraint=eastwest;newEdgeStyle={&quot;curved&quot;:0,&quot;rounded&quot;:0};labelBackgroundColor=none;" vertex="1" parent="1">
          <mxGeometry x="525" y="480" width="10" height="100" as="geometry" />
        </mxCell>
        <mxCell id="TKYAPVWksG-G4QSh5mju-20" style="rounded=0;orthogonalLoop=1;jettySize=auto;html=1;dashed=1;endArrow=none;startFill=0;labelBackgroundColor=none;fontColor=default;" edge="1" parent="1" source="TKYAPVWksG-G4QSh5mju-17" target="TKYAPVWksG-G4QSh5mju-19">
          <mxGeometry relative="1" as="geometry" />
        </mxCell>
        <mxCell id="TKYAPVWksG-G4QSh5mju-23" value="" style="shape=umlDestroy;whiteSpace=wrap;html=1;strokeWidth=3;targetShapes=umlLifeline;labelBackgroundColor=none;" vertex="1" parent="1">
          <mxGeometry x="515" y="680" width="30" height="30" as="geometry" />
        </mxCell>
        <mxCell id="TKYAPVWksG-G4QSh5mju-24" style="rounded=0;orthogonalLoop=1;jettySize=auto;html=1;dashed=1;endArrow=none;startFill=0;labelBackgroundColor=none;fontColor=default;" edge="1" parent="1" source="TKYAPVWksG-G4QSh5mju-23" target="TKYAPVWksG-G4QSh5mju-19">
          <mxGeometry relative="1" as="geometry" />
        </mxCell>
        <mxCell id="TKYAPVWksG-G4QSh5mju-29" value="alt" style="shape=umlFrame;whiteSpace=wrap;html=1;pointerEvents=0;labelBackgroundColor=none;" vertex="1" parent="1">
          <mxGeometry x="-90" y="200" width="550" height="160" as="geometry" />
        </mxCell>
        <mxCell id="TKYAPVWksG-G4QSh5mju-30" value="sd Realizar Depósito" style="shape=umlFrame;whiteSpace=wrap;html=1;pointerEvents=0;width=140;height=30;labelBackgroundColor=none;" vertex="1" parent="1">
          <mxGeometry x="-220" y="20" width="840" height="750" as="geometry" />
        </mxCell>
        <mxCell id="TKYAPVWksG-G4QSh5mju-31" value="" style="html=1;points=[[0,0,0,0,5],[0,1,0,0,-5],[1,0,0,0,5],[1,1,0,0,-5]];perimeter=orthogonalPerimeter;outlineConnect=0;targetShapes=umlLifeline;portConstraint=eastwest;newEdgeStyle={&quot;curved&quot;:0,&quot;rounded&quot;:0};" vertex="1" parent="1">
          <mxGeometry x="180" y="370" width="10" height="170" as="geometry" />
        </mxCell>
      </root>
    </mxGraphModel>
  </diagram>
</mxfile>
